<svg xmlns="http://www.w3.org/2000/svg" viewBox="0 0 389 433" width="389" height="433" fill="none" stroke="#1d2025" stroke-width="2.5" stroke-linecap="round" font-family="Roboto,Arial,sans-serif" font-size="12"><style>text{fill:#1d2025;stroke:none}</style><g><g transform="scale(1,1) translate(-18,19)"><path d="M 320 64 L 320 49"/><g><text x="310" y="37" text-anchor="start" dominant-baseline="central">+5V</text></g><path d="M 240 64 L 320 64"/><path d="M 320 192 L 307 182"/><path d="M 320 160 L 307 170"/><path fill="#000000" stroke="none" d="M 307 170 L 316 168 L 311 162 Z"/><path d="M 272 176 L 304 176"/><path fill="#000000" stroke="none" d="M 304 160 L 307 160 L 307 192 L 304 192 Z"/><path d="M 320 64 L 320 160"/><path d="M 240 64 L 240 104"/><path d="M 240 136 L 240 176"/><g transform="matrix(0,1,-1,0,240,104)"><path d="M 0 0 L 2 6 L 6 -6 L 10 6 L 14 -6 L 18 6 L 22 -6 L 26 6 L 30 -6 L 32 0"/></g><g><text x="250" y="126" text-anchor="start" dominant-baseline="alphabetic">47k</text></g><path d="M 240 176 L 272 176"/><path d="M 128 176 L 113 176"/><g><text x="88" y="176" text-anchor="start" dominant-baseline="central">+5V</text></g><path d="M 128 176 L 168 176"/><path d="M 200 176 L 240 176"/><g transform="matrix(1,0,0,1,168,176)"><path d="M 0 0 L 2 6 L 6 -6 L 10 6 L 14 -6 L 18 6 L 22 -6 L 26 6 L 30 -6 L 32 0"/></g><g><text x="173" y="166" text-anchor="start" dominant-baseline="alphabetic">4.7k</text></g><path d="M 320 192 L 320 212"/><path d="M 320 236 L 320 256"/><path stroke="#808080" d="M 331.8 224 A 11.8 11.8 0 1 1 331.8 224"/><path fill="#000000" stroke="none" d="M 328 224 A 8 8 0 1 1 328 223.9 Z"/><path d="M 320 256 L 320 280"/><path d="M 320 312 L 320 336"/><g transform="matrix(0,1,-1,0,320,280)"><path d="M 0 0 L 2 6 L 6 -6 L 10 6 L 14 -6 L 18 6 L 22 -6 L 26 6 L 30 -6 L 32 0"/></g><g><text x="330" y="302" text-anchor="start" dominant-baseline="alphabetic">330</text></g><path d="M 320 336 L 320 352"/><path d="M 330 352 L 310 352"/><path d="M 326 357 L 314 357"/><path d="M 322 362 L 318 362"/><path fill="#000000" stroke="none" d="M 323 64 A 3 3 0 1 1 323 64 Z"/><path fill="#000000" stroke="none" d="M 243 176 A 3 3 0 1 1 243 176 Z"/></g></g></svg>
